<svg xmlns="http://www.w3.org/2000/svg" xmlns:xlink="http://www.w3.org/1999/xlink" contentStyleType="text/css" data-diagram-type="ACTIVITY" height="1111px" preserveAspectRatio="none" style="width:2655px;height:1111px;background:#FFFFFF;" version="1.1" viewBox="0 0 2655 1111" width="2655px" zoomAndPan="magnify"><?plantuml 1.2026.6?><defs/><g><g class="title" data-source-line="23"><text fill="#000000" font-family="Arial" font-size="14" font-weight="700" lengthAdjust="spacing" textLength="364.0889" x="1144.5344" y="33.1318">AD_09 Administrative Transcript and Job Management</text></g><rect fill="#F2F2F2" height="11.499" style="stroke:#F2F2F2;stroke-width:1;" width="2608.1576" x="20" y="53.0986"/><ellipse cx="302.4941" cy="79.5977" fill="#222222" rx="10" ry="10" style="stroke:#222222;stroke-width:1;"/><rect fill="#FFFFFF" height="31.499" rx="12.5" ry="12.5" style="stroke:#000000;stroke-width:0.5;" width="188.4033" x="208.2925" y="109.5977"/><text fill="#000000" font-family="Arial" font-size="10" lengthAdjust="spacing" textLength="168.4033" x="218.2925" y="128.9775">Open Transcript or Job Administration</text><rect fill="#FFFFFF" height="31.499" rx="12.5" ry="12.5" style="stroke:#000000;stroke-width:0.5;" width="167.29" x="218.8491" y="340.0947"/><text fill="#000000" font-family="Arial" font-size="10" lengthAdjust="spacing" textLength="147.29" x="228.8491" y="359.4746">Search, Filter, and Select Record</text><polygon fill="#FFFFFF" points="268.3047,519.0928,336.6836,519.0928,348.6836,531.0928,336.6836,543.0928,268.3047,543.0928,256.3047,531.0928,268.3047,519.0928" style="stroke:#000000;stroke-width:0.5;stroke-linejoin:miter;stroke-miterlimit:10;"/><text fill="#000000" font-family="Arial" font-size="10" lengthAdjust="spacing" textLength="68.3789" x="268.3047" y="534.7231">Selected action</text><rect fill="#FFFFFF" height="31.499" rx="12.5" ry="12.5" style="stroke:#000000;stroke-width:0.5;" width="160.0537" x="26" y="576.0908"/><text fill="#000000" font-family="Arial" font-size="10" lengthAdjust="spacing" textLength="140.0537" x="36" y="595.4707">Select New Owner and Confirm</text><polygon fill="#FFFFFF" points="325.7931,627.5898,414.7286,627.5898,426.7286,639.5898,414.7286,651.5898,325.7931,651.5898,313.7931,639.5898,325.7931,627.5898" style="stroke:#000000;stroke-width:0.5;stroke-linejoin:miter;stroke-miterlimit:10;"/><text fill="#000000" font-family="Arial" font-size="10" lengthAdjust="spacing" textLength="88.9355" x="325.7931" y="643.2202">Deletion confirmed?</text><text fill="#000000" font-family="Arial" font-size="10" lengthAdjust="spacing" textLength="22.7881" x="291.005" y="637.4707">[Yes]</text><text fill="#000000" font-family="Arial" font-size="10" lengthAdjust="spacing" textLength="18.3398" x="426.7286" y="637.4707">[No]</text><polygon fill="#FFFFFF" points="370.2609,974.0869,382.2609,986.0869,370.2609,998.0869,358.2609,986.0869,370.2609,974.0869" style="stroke:#000000;stroke-width:0.5;stroke-linejoin:miter;stroke-miterlimit:10;"/><rect fill="#FFFFFF" height="31.499" rx="12.5" ry="12.5" style="stroke:#000000;stroke-width:0.5;" width="81.6748" x="455.0685" y="671.5898"/><text fill="#000000" font-family="Arial" font-size="10" lengthAdjust="spacing" textLength="61.6748" x="465.0685" y="690.9697">Confirm Retry</text><polygon fill="#FFFFFF" points="302.4941,1024.5859,302.4941,1024.5859,314.4941,1036.5859,302.4941,1048.5859,302.4941,1048.5859,290.4941,1036.5859,302.4941,1024.5859" style="stroke:#000000;stroke-width:0.5;stroke-linejoin:miter;stroke-miterlimit:10;"/><line style="stroke:#000000;stroke-width:1.5;" x1="20" x2="20" y1="53.0986" y2="1090.5859"/><rect fill="#FFFFFF" height="31.499" rx="12.5" ry="12.5" style="stroke:#000000;stroke-width:0.5;" width="142.2559" x="1448.0543" y="161.0967"/><text fill="#000000" font-family="Arial" font-size="10" lengthAdjust="spacing" textLength="122.2559" x="1458.0543" y="180.4766">Verify Administrator Access</text><polygon fill="#FFFFFF" points="1492.4977,212.5957,1545.8668,212.5957,1557.8668,224.5957,1545.8668,236.5957,1492.4977,236.5957,1480.4977,224.5957,1492.4977,212.5957" style="stroke:#000000;stroke-width:0.5;stroke-linejoin:miter;stroke-miterlimit:10;"/><text fill="#000000" font-family="Arial" font-size="10" lengthAdjust="spacing" textLength="53.3691" x="1492.4977" y="228.2261">Authorized?</text><text fill="#000000" font-family="Arial" font-size="10" lengthAdjust="spacing" textLength="22.7881" x="1457.7096" y="222.4766">[Yes]</text><text fill="#000000" font-family="Arial" font-size="10" lengthAdjust="spacing" textLength="18.3398" x="1557.8668" y="222.4766">[No]</text><rect fill="#FFFFFF" height="31.499" rx="12.5" ry="12.5" style="stroke:#000000;stroke-width:0.5;" width="189.5215" x="1331.0585" y="246.5957"/><text fill="#000000" font-family="Arial" font-size="10" lengthAdjust="spacing" textLength="169.5215" x="1341.0585" y="265.9756">Retrieve Transcripts and Job Statuses</text><rect fill="#FFFFFF" height="31.499" rx="12.5" ry="12.5" style="stroke:#000000;stroke-width:0.5;" width="143.9307" x="1540.58" y="246.5957"/><text fill="#000000" font-family="Arial" font-size="10" lengthAdjust="spacing" textLength="123.9307" x="1550.58" y="265.9756">Deny Administrative Access</text><ellipse cx="1612.5453" cy="309.0947" fill="none" rx="11" ry="11" style="stroke:#222222;stroke-width:1;"/><ellipse cx="1612.5453" cy="309.0947" fill="#222222" rx="6" ry="6" style="stroke:#222222;stroke-width:1;"/><polygon fill="#FFFFFF" points="1486.382,391.5938,1551.9825,391.5938,1563.9825,403.5938,1551.9825,415.5938,1486.382,415.5938,1474.382,403.5938,1486.382,391.5938" style="stroke:#000000;stroke-width:0.5;stroke-linejoin:miter;stroke-miterlimit:10;"/><text fill="#000000" font-family="Arial" font-size="10" lengthAdjust="spacing" textLength="65.6006" x="1486.382" y="407.2241">Record found?</text><text fill="#000000" font-family="Arial" font-size="10" lengthAdjust="spacing" textLength="22.7881" x="1451.5939" y="401.4746">[Yes]</text><text fill="#000000" font-family="Arial" font-size="10" lengthAdjust="spacing" textLength="18.3398" x="1563.9825" y="401.4746">[No]</text><rect fill="#FFFFFF" height="31.499" rx="12.5" ry="12.5" style="stroke:#000000;stroke-width:0.5;" width="129.4971" x="1377.7406" y="425.5938"/><text fill="#000000" font-family="Arial" font-size="10" lengthAdjust="spacing" textLength="109.4971" x="1387.7406" y="444.9736">Display Selected Record</text><rect fill="#FFFFFF" height="31.499" rx="12.5" ry="12.5" style="stroke:#000000;stroke-width:0.5;" width="137.2754" x="1527.2377" y="425.5938"/><text fill="#000000" font-family="Arial" font-size="10" lengthAdjust="spacing" textLength="117.2754" x="1537.2377" y="444.9736">Display Record Not Found</text><ellipse cx="1595.8754" cy="488.0928" fill="none" rx="11" ry="11" style="stroke:#222222;stroke-width:1;"/><ellipse cx="1595.8754" cy="488.0928" fill="#222222" rx="6" ry="6" style="stroke:#222222;stroke-width:1;"/><rect fill="#FFFFFF" height="31.499" rx="12.5" ry="12.5" style="stroke:#000000;stroke-width:0.5;" width="125.0391" x="546.7433" y="576.0908"/><text fill="#000000" font-family="Arial" font-size="10" lengthAdjust="spacing" textLength="105.0391" x="556.7433" y="595.4707">Open Transcript Details</text><rect fill="#FFFFFF" height="31.499" rx="12.5" ry="12.5" style="stroke:#000000;stroke-width:0.5;" width="111.709" x="851.3002" y="627.5898"/><text fill="#000000" font-family="Arial" font-size="10" lengthAdjust="spacing" textLength="91.709" x="861.3002" y="646.9697">Validate Target User</text><polygon fill="#FFFFFF" points="877.975,694.0889,936.3344,694.0889,948.3344,706.0889,936.3344,718.0889,877.975,718.0889,865.975,706.0889,877.975,694.0889" style="stroke:#000000;stroke-width:0.5;stroke-linejoin:miter;stroke-miterlimit:10;"/><text fill="#000000" font-family="Arial" font-size="10" lengthAdjust="spacing" textLength="58.3594" x="877.975" y="709.7192">Owner valid?</text><text fill="#000000" font-family="Arial" font-size="10" lengthAdjust="spacing" textLength="22.7881" x="843.1869" y="703.9697">[Yes]</text><text fill="#000000" font-family="Arial" font-size="10" lengthAdjust="spacing" textLength="18.3398" x="948.3344" y="703.9697">[No]</text><rect fill="#FFFFFF" height="31.499" rx="12.5" ry="12.5" style="stroke:#000000;stroke-width:0.5;" width="211.2061" x="698.7355" y="728.0889"/><text fill="#000000" font-family="Arial" font-size="10" lengthAdjust="spacing" textLength="191.2061" x="708.7355" y="747.4688">Update Ownership and Folder Membership</text><rect fill="#FFFFFF" height="31.499" rx="12.5" ry="12.5" style="stroke:#000000;stroke-width:0.5;" width="181.7529" x="713.462" y="794.5879"/><text fill="#000000" font-family="Arial" font-size="10" lengthAdjust="spacing" textLength="161.7529" x="723.462" y="813.9678">Record Audit Event and Refresh List</text><rect fill="#FFFFFF" height="31.499" rx="12.5" ry="12.5" style="stroke:#000000;stroke-width:0.5;" width="160.0586" x="929.9415" y="728.0889"/><text fill="#000000" font-family="Arial" font-size="10" lengthAdjust="spacing" textLength="140.0586" x="939.9415" y="747.4688">Display Invalid Owner Message</text><polygon fill="#FFFFFF" points="907.1547,832.0869,919.1547,844.0869,907.1547,856.0869,895.1547,844.0869,907.1547,832.0869" style="stroke:#000000;stroke-width:0.5;stroke-linejoin:miter;stroke-miterlimit:10;"/><rect fill="#FFFFFF" height="31.499" rx="12.5" ry="12.5" style="stroke:#000000;stroke-width:0.5;" width="151.7236" x="1511.0872" y="576.0908"/><text fill="#000000" font-family="Arial" font-size="10" lengthAdjust="spacing" textLength="131.7236" x="1521.0872" y="595.4707">Display Deletion Confirmation</text><rect fill="#FFFFFF" height="31.499" rx="12.5" ry="12.5" style="stroke:#000000;stroke-width:0.5;" width="137.2852" x="1353.6342" y="671.5898"/><text fill="#000000" font-family="Arial" font-size="10" lengthAdjust="spacing" textLength="117.2852" x="1363.6342" y="690.9697">Validate Deletion Eligibility</text><polygon fill="#FFFFFF" points="1403.3754,738.0889,1441.1781,738.0889,1453.1781,750.0889,1441.1781,762.0889,1403.3754,762.0889,1391.3754,750.0889,1403.3754,738.0889" style="stroke:#000000;stroke-width:0.5;stroke-linejoin:miter;stroke-miterlimit:10;"/><text fill="#000000" font-family="Arial" font-size="10" lengthAdjust="spacing" textLength="37.8027" x="1403.3754" y="753.7192">Eligible?</text><text fill="#000000" font-family="Arial" font-size="10" lengthAdjust="spacing" textLength="22.7881" x="1368.5873" y="747.9697">[Yes]</text><text fill="#000000" font-family="Arial" font-size="10" lengthAdjust="spacing" textLength="18.3398" x="1453.1781" y="747.9697">[No]</text><rect fill="#FFFFFF" height="31.499" rx="12.5" ry="12.5" style="stroke:#000000;stroke-width:0.5;" width="180.625" x="1187.4025" y="772.0889"/><text fill="#000000" font-family="Arial" font-size="10" lengthAdjust="spacing" textLength="160.625" x="1197.4025" y="791.4688">Delete Implemented Transcript Data</text><polygon fill="#FFFFFF" points="1231.858,838.5879,1323.5719,838.5879,1335.5719,850.5879,1323.5719,862.5879,1231.858,862.5879,1219.858,850.5879,1231.858,838.5879" style="stroke:#000000;stroke-width:0.5;stroke-linejoin:miter;stroke-miterlimit:10;"/><text fill="#000000" font-family="Arial" font-size="10" lengthAdjust="spacing" textLength="91.7139" x="1231.858" y="854.2183">Deletion successful?</text><text fill="#000000" font-family="Arial" font-size="10" lengthAdjust="spacing" textLength="22.7881" x="1197.0699" y="848.4688">[Yes]</text><text fill="#000000" font-family="Arial" font-size="10" lengthAdjust="spacing" textLength="18.3398" x="1335.5719" y="848.4688">[No]</text><rect fill="#FFFFFF" height="31.499" rx="12.5" ry="12.5" style="stroke:#000000;stroke-width:0.5;" width="181.7529" x="1100.0001" y="872.5879"/><text fill="#000000" font-family="Arial" font-size="10" lengthAdjust="spacing" textLength="161.7529" x="1110.0001" y="891.9678">Record Audit Event and Refresh List</text><rect fill="#FFFFFF" height="31.499" rx="12.5" ry="12.5" style="stroke:#000000;stroke-width:0.5;" width="125.6006" x="1301.7531" y="872.5879"/><text fill="#000000" font-family="Arial" font-size="10" lengthAdjust="spacing" textLength="105.6006" x="1311.7531" y="891.9678">Display Deletion Failure</text><polygon fill="#FFFFFF" points="1277.715,910.0869,1289.715,922.0869,1277.715,934.0869,1265.715,922.0869,1277.715,910.0869" style="stroke:#000000;stroke-width:0.5;stroke-linejoin:miter;stroke-miterlimit:10;"/><rect fill="#FFFFFF" height="31.499" rx="12.5" ry="12.5" style="stroke:#000000;stroke-width:0.5;" width="218.9697" x="1457.3536" y="772.0889"/><text fill="#000000" font-family="Arial" font-size="10" lengthAdjust="spacing" textLength="198.9697" x="1467.3536" y="791.4688">Display Processing or Stale-State Restriction</text><polygon fill="#FFFFFF" points="1422.2767,940.0869,1434.2767,952.0869,1422.2767,964.0869,1410.2767,952.0869,1422.2767,940.0869" style="stroke:#000000;stroke-width:0.5;stroke-linejoin:miter;stroke-miterlimit:10;"/><rect fill="#FFFFFF" height="31.499" rx="12.5" ry="12.5" style="stroke:#000000;stroke-width:0.5;" width="90.5957" x="1694.5106" y="671.5898"/><text fill="#000000" font-family="Arial" font-size="10" lengthAdjust="spacing" textLength="70.5957" x="1704.5106" y="690.9697">Cancel Deletion</text><rect fill="#FFFFFF" height="31.499" rx="12.5" ry="12.5" style="stroke:#000000;stroke-width:0.5;" width="167.8516" x="1795.1063" y="576.0908"/><text fill="#000000" font-family="Arial" font-size="10" lengthAdjust="spacing" textLength="147.8516" x="1805.1063" y="595.4707">Display Failure Stage and Details</text><rect fill="#FFFFFF" height="31.499" rx="12.5" ry="12.5" style="stroke:#000000;stroke-width:0.5;" width="113.9111" x="2237.1748" y="576.0908"/><text fill="#000000" font-family="Arial" font-size="10" lengthAdjust="spacing" textLength="93.9111" x="2247.1748" y="595.4707">Verify Retry Eligibility</text><polygon fill="#FFFFFF" points="2262.4482,627.5898,2325.8125,627.5898,2337.8125,639.5898,2325.8125,651.5898,2262.4482,651.5898,2250.4482,639.5898,2262.4482,627.5898" style="stroke:#000000;stroke-width:0.5;stroke-linejoin:miter;stroke-miterlimit:10;"/><text fill="#000000" font-family="Arial" font-size="10" lengthAdjust="spacing" textLength="63.3643" x="2262.4482" y="643.2202">Retry eligible?</text><text fill="#000000" font-family="Arial" font-size="10" lengthAdjust="spacing" textLength="22.7881" x="2227.6602" y="637.4707">[Yes]</text><text fill="#000000" font-family="Arial" font-size="10" lengthAdjust="spacing" textLength="18.3398" x="2337.8125" y="637.4707">[No]</text><rect fill="#FFFFFF" height="31.499" rx="12.5" ry="12.5" style="stroke:#000000;stroke-width:0.5;" width="97.2803" x="2114.5485" y="738.0889"/><text fill="#000000" font-family="Arial" font-size="10" lengthAdjust="spacing" textLength="77.2803" x="2124.5485" y="757.4688">Queue Job Again</text><polygon fill="#FFFFFF" points="2120.6642,804.5879,2205.713,804.5879,2217.713,816.5879,2205.713,828.5879,2120.6642,828.5879,2108.6642,816.5879,2120.6642,804.5879" style="stroke:#000000;stroke-width:0.5;stroke-linejoin:miter;stroke-miterlimit:10;"/><text fill="#000000" font-family="Arial" font-size="10" lengthAdjust="spacing" textLength="85.0488" x="2120.6642" y="820.2183">Queue successful?</text><text fill="#000000" font-family="Arial" font-size="10" lengthAdjust="spacing" textLength="22.7881" x="2085.8761" y="814.4688">[Yes]</text><text fill="#000000" font-family="Arial" font-size="10" lengthAdjust="spacing" textLength="18.3398" x="2217.713" y="814.4688">[No]</text><rect fill="#FFFFFF" height="31.499" rx="12.5" ry="12.5" style="stroke:#000000;stroke-width:0.5;" width="191.7725" x="1972.9579" y="848.5879"/><text fill="#000000" font-family="Arial" font-size="10" lengthAdjust="spacing" textLength="171.7725" x="1982.9579" y="867.9678">Update Status and Record Audit Event</text><rect fill="#FFFFFF" height="31.499" rx="12.5" ry="12.5" style="stroke:#000000;stroke-width:0.5;" width="145.6055" x="2184.7303" y="848.5879"/><text fill="#000000" font-family="Arial" font-size="10" lengthAdjust="spacing" textLength="125.6055" x="2194.7303" y="867.9678">Display Retry Queue Failure</text><polygon fill="#FFFFFF" points="2163.1886,956.5859,2175.1886,968.5859,2163.1886,980.5859,2151.1886,968.5859,2163.1886,956.5859" style="stroke:#000000;stroke-width:0.5;stroke-linejoin:miter;stroke-miterlimit:10;"/><rect fill="#FFFFFF" height="31.499" rx="12.5" ry="12.5" style="stroke:#000000;stroke-width:0.5;" width="129.4727" x="2360.3358" y="671.5898"/><text fill="#000000" font-family="Arial" font-size="10" lengthAdjust="spacing" textLength="109.4727" x="2370.3358" y="690.9697">Display Retry Restriction</text><polygon fill="#FFFFFF" points="2294.1304,990.5859,2306.1304,1002.5859,2294.1304,1014.5859,2282.1304,1002.5859,2294.1304,990.5859" style="stroke:#000000;stroke-width:0.5;stroke-linejoin:miter;stroke-miterlimit:10;"/><ellipse cx="1519.1823" cy="1079.5859" fill="none" rx="11" ry="11" style="stroke:#222222;stroke-width:1;"/><ellipse cx="1519.1823" cy="1079.5859" fill="#222222" rx="6" ry="6" style="stroke:#222222;stroke-width:1;"/><line style="stroke:#000000;stroke-width:1.5;" x1="540.7433" x2="540.7433" y1="53.0986" y2="1090.5859"/><rect fill="#FFFFFF" height="31.499" rx="12.5" ry="12.5" style="stroke:#000000;stroke-width:0.5;" width="123.96" x="2499.8085" y="915.0869"/><text fill="#000000" font-family="Arial" font-size="10" lengthAdjust="spacing" textLength="103.96" x="2509.8085" y="934.4668">Receive Requeued Job</text><line style="stroke:#000000;stroke-width:1.5;" x1="2493.8085" x2="2493.8085" y1="53.0986" y2="1090.5859"/><line style="stroke:#000000;stroke-width:1.5;" x1="2627.7684" x2="2627.7684" y1="53.0986" y2="1090.5859"/><line style="stroke:#000000;stroke-width:1;" x1="302.4941" x2="302.4941" y1="89.5977" y2="109.5977"/><polygon fill="#000000" points="298.4941,99.5977,302.4941,109.5977,306.4941,99.5977,302.4941,103.5977" style="stroke:#000000;stroke-width:1;stroke-linejoin:miter;stroke-miterlimit:10;"/><line style="stroke:#000000;stroke-width:1;" x1="106.0269" x2="106.0269" y1="531.0928" y2="576.0908"/><polygon fill="#000000" points="102.0269,566.0908,106.0269,576.0908,110.0269,566.0908,106.0269,570.0908" style="stroke:#000000;stroke-width:1;stroke-linejoin:miter;stroke-miterlimit:10;"/><text fill="#000000" font-family="Arial" font-size="10" lengthAdjust="spacing" textLength="92.2656" x="106.0269" y="552.2222">Reassign Ownership</text><line style="stroke:#000000;stroke-width:1;" x1="1612.5453" x2="1612.5453" y1="278.0947" y2="298.0947"/><polygon fill="#000000" points="1608.5453,288.0947,1612.5453,298.0947,1616.5453,288.0947,1612.5453,292.0947" style="stroke:#000000;stroke-width:1;stroke-linejoin:miter;stroke-miterlimit:10;"/><line style="stroke:#000000;stroke-width:1;" x1="1480.4977" x2="1425.8192" y1="224.5957" y2="224.5957"/><line style="stroke:#000000;stroke-width:1;" x1="1425.8192" x2="1425.8192" y1="224.5957" y2="246.5957"/><polygon fill="#000000" points="1421.8192,236.5957,1425.8192,246.5957,1429.8192,236.5957,1425.8192,240.5957" style="stroke:#000000;stroke-width:1;stroke-linejoin:miter;stroke-miterlimit:10;"/><line style="stroke:#000000;stroke-width:1;" x1="1557.8668" x2="1612.5453" y1="224.5957" y2="224.5957"/><line style="stroke:#000000;stroke-width:1;" x1="1612.5453" x2="1612.5453" y1="224.5957" y2="246.5957"/><polygon fill="#000000" points="1608.5453,236.5957,1612.5453,246.5957,1616.5453,236.5957,1612.5453,240.5957" style="stroke:#000000;stroke-width:1;stroke-linejoin:miter;stroke-miterlimit:10;"/><line style="stroke:#000000;stroke-width:1;" x1="1425.8192" x2="1425.8192" y1="278.0947" y2="325.0947"/><line style="stroke:#000000;stroke-width:1;" x1="1425.8192" x2="302.4941" y1="325.0947" y2="325.0947"/><line style="stroke:#000000;stroke-width:1;" x1="302.4941" x2="302.4941" y1="325.0947" y2="340.0947"/><polygon fill="#000000" points="298.4941,330.0947,302.4941,340.0947,306.4941,330.0947,302.4941,334.0947" style="stroke:#000000;stroke-width:1;stroke-linejoin:miter;stroke-miterlimit:10;"/><line style="stroke:#000000;stroke-width:1;" x1="1519.1823" x2="1519.1823" y1="192.5957" y2="212.5957"/><polygon fill="#000000" points="1515.1823,202.5957,1519.1823,212.5957,1523.1823,202.5957,1519.1823,206.5957" style="stroke:#000000;stroke-width:1;stroke-linejoin:miter;stroke-miterlimit:10;"/><line style="stroke:#000000;stroke-width:1;" x1="1595.8754" x2="1595.8754" y1="457.0928" y2="477.0928"/><polygon fill="#000000" points="1591.8754,467.0928,1595.8754,477.0928,1599.8754,467.0928,1595.8754,471.0928" style="stroke:#000000;stroke-width:1;stroke-linejoin:miter;stroke-miterlimit:10;"/><line style="stroke:#000000;stroke-width:1;" x1="1474.382" x2="1442.4891" y1="403.5938" y2="403.5938"/><line style="stroke:#000000;stroke-width:1;" x1="1442.4891" x2="1442.4891" y1="403.5938" y2="425.5938"/><polygon fill="#000000" points="1438.4891,415.5938,1442.4891,425.5938,1446.4891,415.5938,1442.4891,419.5938" style="stroke:#000000;stroke-width:1;stroke-linejoin:miter;stroke-miterlimit:10;"/><line style="stroke:#000000;stroke-width:1;" x1="1563.9825" x2="1595.8754" y1="403.5938" y2="403.5938"/><line style="stroke:#000000;stroke-width:1;" x1="1595.8754" x2="1595.8754" y1="403.5938" y2="425.5938"/><polygon fill="#000000" points="1591.8754,415.5938,1595.8754,425.5938,1599.8754,415.5938,1595.8754,419.5938" style="stroke:#000000;stroke-width:1;stroke-linejoin:miter;stroke-miterlimit:10;"/><line style="stroke:#000000;stroke-width:1;" x1="1442.4891" x2="1442.4891" y1="457.0928" y2="504.0928"/><line style="stroke:#000000;stroke-width:1;" x1="1442.4891" x2="302.4941" y1="504.0928" y2="504.0928"/><line style="stroke:#000000;stroke-width:1;" x1="302.4941" x2="302.4941" y1="504.0928" y2="519.0928"/><polygon fill="#000000" points="298.4941,509.0928,302.4941,519.0928,306.4941,509.0928,302.4941,513.0928" style="stroke:#000000;stroke-width:1;stroke-linejoin:miter;stroke-miterlimit:10;"/><line style="stroke:#000000;stroke-width:1;" x1="804.3385" x2="804.3385" y1="759.5879" y2="794.5879"/><polygon fill="#000000" points="800.3385,784.5879,804.3385,794.5879,808.3385,784.5879,804.3385,788.5879" style="stroke:#000000;stroke-width:1;stroke-linejoin:miter;stroke-miterlimit:10;"/><line style="stroke:#000000;stroke-width:1;" x1="865.975" x2="804.3385" y1="706.0889" y2="706.0889"/><line style="stroke:#000000;stroke-width:1;" x1="804.3385" x2="804.3385" y1="706.0889" y2="728.0889"/><polygon fill="#000000" points="800.3385,718.0889,804.3385,728.0889,808.3385,718.0889,804.3385,722.0889" style="stroke:#000000;stroke-width:1;stroke-linejoin:miter;stroke-miterlimit:10;"/><line style="stroke:#000000;stroke-width:1;" x1="948.3344" x2="1009.9708" y1="706.0889" y2="706.0889"/><line style="stroke:#000000;stroke-width:1;" x1="1009.9708" x2="1009.9708" y1="706.0889" y2="728.0889"/><polygon fill="#000000" points="1005.9708,718.0889,1009.9708,728.0889,1013.9708,718.0889,1009.9708,722.0889" style="stroke:#000000;stroke-width:1;stroke-linejoin:miter;stroke-miterlimit:10;"/><line style="stroke:#000000;stroke-width:1;" x1="804.3385" x2="804.3385" y1="826.0869" y2="844.0869"/><line style="stroke:#000000;stroke-width:1;" x1="804.3385" x2="895.1547" y1="844.0869" y2="844.0869"/><polygon fill="#000000" points="885.1547,840.0869,895.1547,844.0869,885.1547,848.0869,889.1547,844.0869" style="stroke:#000000;stroke-width:1;stroke-linejoin:miter;stroke-miterlimit:10;"/><line style="stroke:#000000;stroke-width:1;" x1="1009.9708" x2="1009.9708" y1="759.5879" y2="844.0869"/><line style="stroke:#000000;stroke-width:1;" x1="1009.9708" x2="919.1547" y1="844.0869" y2="844.0869"/><polygon fill="#000000" points="929.1547,840.0869,919.1547,844.0869,929.1547,848.0869,925.1547,844.0869" style="stroke:#000000;stroke-width:1;stroke-linejoin:miter;stroke-miterlimit:10;"/><line style="stroke:#000000;stroke-width:1;" x1="907.1547" x2="907.1547" y1="659.0889" y2="694.0889"/><polygon fill="#000000" points="903.1547,684.0889,907.1547,694.0889,911.1547,684.0889,907.1547,688.0889" style="stroke:#000000;stroke-width:1;stroke-linejoin:miter;stroke-miterlimit:10;"/><line style="stroke:#000000;stroke-width:1;" x1="1219.858" x2="1190.8766" y1="850.5879" y2="850.5879"/><line style="stroke:#000000;stroke-width:1;" x1="1190.8766" x2="1190.8766" y1="850.5879" y2="872.5879"/><polygon fill="#000000" points="1186.8766,862.5879,1190.8766,872.5879,1194.8766,862.5879,1190.8766,866.5879" style="stroke:#000000;stroke-width:1;stroke-linejoin:miter;stroke-miterlimit:10;"/><line style="stroke:#000000;stroke-width:1;" x1="1335.5719" x2="1364.5533" y1="850.5879" y2="850.5879"/><line style="stroke:#000000;stroke-width:1;" x1="1364.5533" x2="1364.5533" y1="850.5879" y2="872.5879"/><polygon fill="#000000" points="1360.5533,862.5879,1364.5533,872.5879,1368.5533,862.5879,1364.5533,866.5879" style="stroke:#000000;stroke-width:1;stroke-linejoin:miter;stroke-miterlimit:10;"/><line style="stroke:#000000;stroke-width:1;" x1="1190.8766" x2="1190.8766" y1="904.0869" y2="922.0869"/><line style="stroke:#000000;stroke-width:1;" x1="1190.8766" x2="1265.715" y1="922.0869" y2="922.0869"/><polygon fill="#000000" points="1255.715,918.0869,1265.715,922.0869,1255.715,926.0869,1259.715,922.0869" style="stroke:#000000;stroke-width:1;stroke-linejoin:miter;stroke-miterlimit:10;"/><line style="stroke:#000000;stroke-width:1;" x1="1364.5533" x2="1364.5533" y1="904.0869" y2="922.0869"/><line style="stroke:#000000;stroke-width:1;" x1="1364.5533" x2="1289.715" y1="922.0869" y2="922.0869"/><polygon fill="#000000" points="1299.715,918.0869,1289.715,922.0869,1299.715,926.0869,1295.715,922.0869" style="stroke:#000000;stroke-width:1;stroke-linejoin:miter;stroke-miterlimit:10;"/><line style="stroke:#000000;stroke-width:1;" x1="1277.715" x2="1277.715" y1="803.5879" y2="838.5879"/><polygon fill="#000000" points="1273.715,828.5879,1277.715,838.5879,1281.715,828.5879,1277.715,832.5879" style="stroke:#000000;stroke-width:1;stroke-linejoin:miter;stroke-miterlimit:10;"/><line style="stroke:#000000;stroke-width:1;" x1="1391.3754" x2="1277.715" y1="750.0889" y2="750.0889"/><line style="stroke:#000000;stroke-width:1;" x1="1277.715" x2="1277.715" y1="750.0889" y2="772.0889"/><polygon fill="#000000" points="1273.715,762.0889,1277.715,772.0889,1281.715,762.0889,1277.715,766.0889" style="stroke:#000000;stroke-width:1;stroke-linejoin:miter;stroke-miterlimit:10;"/><line style="stroke:#000000;stroke-width:1;" x1="1453.1781" x2="1566.8385" y1="750.0889" y2="750.0889"/><line style="stroke:#000000;stroke-width:1;" x1="1566.8385" x2="1566.8385" y1="750.0889" y2="772.0889"/><polygon fill="#000000" points="1562.8385,762.0889,1566.8385,772.0889,1570.8385,762.0889,1566.8385,766.0889" style="stroke:#000000;stroke-width:1;stroke-linejoin:miter;stroke-miterlimit:10;"/><line style="stroke:#000000;stroke-width:1;" x1="1277.715" x2="1277.715" y1="934.0869" y2="952.0869"/><line style="stroke:#000000;stroke-width:1;" x1="1277.715" x2="1410.2767" y1="952.0869" y2="952.0869"/><polygon fill="#000000" points="1400.2767,948.0869,1410.2767,952.0869,1400.2767,956.0869,1404.2767,952.0869" style="stroke:#000000;stroke-width:1;stroke-linejoin:miter;stroke-miterlimit:10;"/><line style="stroke:#000000;stroke-width:1;" x1="1566.8385" x2="1566.8385" y1="803.5879" y2="952.0869"/><line style="stroke:#000000;stroke-width:1;" x1="1566.8385" x2="1434.2767" y1="952.0869" y2="952.0869"/><polygon fill="#000000" points="1444.2767,948.0869,1434.2767,952.0869,1444.2767,956.0869,1440.2767,952.0869" style="stroke:#000000;stroke-width:1;stroke-linejoin:miter;stroke-miterlimit:10;"/><line style="stroke:#000000;stroke-width:1;" x1="1422.2767" x2="1422.2767" y1="703.0889" y2="738.0889"/><polygon fill="#000000" points="1418.2767,728.0889,1422.2767,738.0889,1426.2767,728.0889,1422.2767,732.0889" style="stroke:#000000;stroke-width:1;stroke-linejoin:miter;stroke-miterlimit:10;"/><line style="stroke:#000000;stroke-width:1;" x1="2108.6642" x2="2068.8441" y1="816.5879" y2="816.5879"/><line style="stroke:#000000;stroke-width:1;" x1="2068.8441" x2="2068.8441" y1="816.5879" y2="848.5879"/><polygon fill="#000000" points="2064.8441,838.5879,2068.8441,848.5879,2072.8441,838.5879,2068.8441,842.5879" style="stroke:#000000;stroke-width:1;stroke-linejoin:miter;stroke-miterlimit:10;"/><line style="stroke:#000000;stroke-width:1;" x1="2217.713" x2="2257.5331" y1="816.5879" y2="816.5879"/><line style="stroke:#000000;stroke-width:1;" x1="2257.5331" x2="2257.5331" y1="816.5879" y2="848.5879"/><polygon fill="#000000" points="2253.5331,838.5879,2257.5331,848.5879,2261.5331,838.5879,2257.5331,842.5879" style="stroke:#000000;stroke-width:1;stroke-linejoin:miter;stroke-miterlimit:10;"/><line style="stroke:#000000;stroke-width:1;" x1="2257.5331" x2="2257.5331" y1="880.0869" y2="968.5859"/><line style="stroke:#000000;stroke-width:1;" x1="2257.5331" x2="2175.1886" y1="968.5859" y2="968.5859"/><polygon fill="#000000" points="2185.1886,964.5859,2175.1886,968.5859,2185.1886,972.5859,2181.1886,968.5859" style="stroke:#000000;stroke-width:1;stroke-linejoin:miter;stroke-miterlimit:10;"/><line style="stroke:#000000;stroke-width:1;" x1="2163.1886" x2="2163.1886" y1="769.5879" y2="804.5879"/><polygon fill="#000000" points="2159.1886,794.5879,2163.1886,804.5879,2167.1886,794.5879,2163.1886,798.5879" style="stroke:#000000;stroke-width:1;stroke-linejoin:miter;stroke-miterlimit:10;"/><line style="stroke:#000000;stroke-width:1;" x1="2337.8125" x2="2425.0721" y1="639.5898" y2="639.5898"/><line style="stroke:#000000;stroke-width:1;" x1="2425.0721" x2="2425.0721" y1="639.5898" y2="671.5898"/><polygon fill="#000000" points="2421.0721,661.5898,2425.0721,671.5898,2429.0721,661.5898,2425.0721,665.5898" style="stroke:#000000;stroke-width:1;stroke-linejoin:miter;stroke-miterlimit:10;"/><line style="stroke:#000000;stroke-width:1;" x1="2163.1886" x2="2163.1886" y1="980.5859" y2="1002.5859"/><line style="stroke:#000000;stroke-width:1;" x1="2163.1886" x2="2282.1304" y1="1002.5859" y2="1002.5859"/><polygon fill="#000000" points="2272.1304,998.5859,2282.1304,1002.5859,2272.1304,1006.5859,2276.1304,1002.5859" style="stroke:#000000;stroke-width:1;stroke-linejoin:miter;stroke-miterlimit:10;"/><line style="stroke:#000000;stroke-width:1;" x1="2425.0721" x2="2425.0721" y1="703.0889" y2="1002.5859"/><line style="stroke:#000000;stroke-width:1;" x1="2425.0721" x2="2306.1304" y1="1002.5859" y2="1002.5859"/><polygon fill="#000000" points="2316.1304,998.5859,2306.1304,1002.5859,2316.1304,1006.5859,2312.1304,1002.5859" style="stroke:#000000;stroke-width:1;stroke-linejoin:miter;stroke-miterlimit:10;"/><line style="stroke:#000000;stroke-width:1;" x1="2294.1304" x2="2294.1304" y1="607.5898" y2="627.5898"/><polygon fill="#000000" points="2290.1304,617.5898,2294.1304,627.5898,2298.1304,617.5898,2294.1304,621.5898" style="stroke:#000000;stroke-width:1;stroke-linejoin:miter;stroke-miterlimit:10;"/><line style="stroke:#000000;stroke-width:1;" x1="302.4941" x2="302.4941" y1="141.0967" y2="146.0967"/><line style="stroke:#000000;stroke-width:1;" x1="302.4941" x2="1519.1823" y1="146.0967" y2="146.0967"/><line style="stroke:#000000;stroke-width:1;" x1="1519.1823" x2="1519.1823" y1="146.0967" y2="161.0967"/><polygon fill="#000000" points="1515.1823,151.0967,1519.1823,161.0967,1523.1823,151.0967,1519.1823,155.0967" style="stroke:#000000;stroke-width:1;stroke-linejoin:miter;stroke-miterlimit:10;"/><line style="stroke:#000000;stroke-width:1;" x1="302.4941" x2="302.4941" y1="371.5938" y2="376.5938"/><line style="stroke:#000000;stroke-width:1;" x1="302.4941" x2="1519.1823" y1="376.5938" y2="376.5938"/><line style="stroke:#000000;stroke-width:1;" x1="1519.1823" x2="1519.1823" y1="376.5938" y2="391.5938"/><polygon fill="#000000" points="1515.1823,381.5938,1519.1823,391.5938,1523.1823,381.5938,1519.1823,385.5938" style="stroke:#000000;stroke-width:1;stroke-linejoin:miter;stroke-miterlimit:10;"/><line style="stroke:#000000;stroke-width:1;" x1="106.0269" x2="106.0269" y1="607.5898" y2="612.5898"/><line style="stroke:#000000;stroke-width:1;" x1="106.0269" x2="907.1547" y1="612.5898" y2="612.5898"/><line style="stroke:#000000;stroke-width:1;" x1="907.1547" x2="907.1547" y1="612.5898" y2="627.5898"/><polygon fill="#000000" points="903.1547,617.5898,907.1547,627.5898,911.1547,617.5898,907.1547,621.5898" style="stroke:#000000;stroke-width:1;stroke-linejoin:miter;stroke-miterlimit:10;"/><line style="stroke:#000000;stroke-width:1;" x1="313.7931" x2="301.7931" y1="639.5898" y2="639.5898"/><line style="stroke:#000000;stroke-width:1;" x1="301.7931" x2="301.7931" y1="639.5898" y2="657.5898"/><line style="stroke:#000000;stroke-width:1;" x1="301.7931" x2="1422.2767" y1="657.5898" y2="657.5898"/><line style="stroke:#000000;stroke-width:1;" x1="1422.2767" x2="1422.2767" y1="657.5898" y2="671.5898"/><polygon fill="#000000" points="1418.2767,661.5898,1422.2767,671.5898,1426.2767,661.5898,1422.2767,665.5898" style="stroke:#000000;stroke-width:1;stroke-linejoin:miter;stroke-miterlimit:10;"/><line style="stroke:#000000;stroke-width:1;" x1="426.7286" x2="1739.8085" y1="639.5898" y2="639.5898"/><line style="stroke:#000000;stroke-width:1;" x1="1739.8085" x2="1739.8085" y1="639.5898" y2="671.5898"/><polygon fill="#000000" points="1735.8085,661.5898,1739.8085,671.5898,1743.8085,661.5898,1739.8085,665.5898" style="stroke:#000000;stroke-width:1;stroke-linejoin:miter;stroke-miterlimit:10;"/><line style="stroke:#000000;stroke-width:1;" x1="1422.2767" x2="1422.2767" y1="964.0869" y2="968.0869"/><line style="stroke:#000000;stroke-width:1;" x1="1422.2767" x2="340.2609" y1="968.0869" y2="968.0869"/><line style="stroke:#000000;stroke-width:1;" x1="340.2609" x2="340.2609" y1="968.0869" y2="986.0869"/><line style="stroke:#000000;stroke-width:1;" x1="340.2609" x2="358.2609" y1="986.0869" y2="986.0869"/><polygon fill="#000000" points="348.2609,982.0869,358.2609,986.0869,348.2609,990.0869,352.2609,986.0869" style="stroke:#000000;stroke-width:1;stroke-linejoin:miter;stroke-miterlimit:10;"/><line style="stroke:#000000;stroke-width:1;" x1="1739.8085" x2="1739.8085" y1="703.0889" y2="986.0869"/><line style="stroke:#000000;stroke-width:1;" x1="1739.8085" x2="382.2609" y1="986.0869" y2="986.0869"/><polygon fill="#000000" points="392.2609,982.0869,382.2609,986.0869,392.2609,990.0869,388.2609,986.0869" style="stroke:#000000;stroke-width:1;stroke-linejoin:miter;stroke-miterlimit:10;"/><line style="stroke:#000000;stroke-width:1;" x1="1586.949" x2="1586.949" y1="607.5898" y2="612.5898"/><line style="stroke:#000000;stroke-width:1;" x1="1586.949" x2="370.2609" y1="612.5898" y2="612.5898"/><line style="stroke:#000000;stroke-width:1;" x1="370.2609" x2="370.2609" y1="612.5898" y2="627.5898"/><polygon fill="#000000" points="366.2609,617.5898,370.2609,627.5898,374.2609,617.5898,370.2609,621.5898" style="stroke:#000000;stroke-width:1;stroke-linejoin:miter;stroke-miterlimit:10;"/><line style="stroke:#000000;stroke-width:1;" x1="495.9059" x2="495.9059" y1="703.0889" y2="720.5889"/><line style="stroke:#000000;stroke-width:1;" x1="495.9059" x2="2163.1886" y1="720.5889" y2="720.5889"/><line style="stroke:#000000;stroke-width:1;" x1="2163.1886" x2="2163.1886" y1="720.5889" y2="738.0889"/><polygon fill="#000000" points="2159.1886,728.0889,2163.1886,738.0889,2167.1886,728.0889,2163.1886,732.0889" style="stroke:#000000;stroke-width:1;stroke-linejoin:miter;stroke-miterlimit:10;"/><line style="stroke:#000000;stroke-width:1;" x1="2068.8441" x2="2068.8441" y1="880.0869" y2="897.5869"/><line style="stroke:#000000;stroke-width:1;" x1="2068.8441" x2="2561.7885" y1="897.5869" y2="897.5869"/><line style="stroke:#000000;stroke-width:1;" x1="2561.7885" x2="2561.7885" y1="897.5869" y2="915.0869"/><polygon fill="#000000" points="2557.7885,905.0869,2561.7885,915.0869,2565.7885,905.0869,2561.7885,909.0869" style="stroke:#000000;stroke-width:1;stroke-linejoin:miter;stroke-miterlimit:10;"/><line style="stroke:#000000;stroke-width:1;" x1="2561.7885" x2="2561.7885" y1="946.5859" y2="950.5859"/><line style="stroke:#000000;stroke-width:1;" x1="2561.7885" x2="2133.1886" y1="950.5859" y2="950.5859"/><line style="stroke:#000000;stroke-width:1;" x1="2133.1886" x2="2133.1886" y1="950.5859" y2="968.5859"/><line style="stroke:#000000;stroke-width:1;" x1="2133.1886" x2="2151.1886" y1="968.5859" y2="968.5859"/><polygon fill="#000000" points="2141.1886,964.5859,2151.1886,968.5859,2141.1886,972.5859,2145.1886,968.5859" style="stroke:#000000;stroke-width:1;stroke-linejoin:miter;stroke-miterlimit:10;"/><line style="stroke:#000000;stroke-width:1;" x1="2250.4482" x2="495.9059" y1="639.5898" y2="639.5898"/><line style="stroke:#000000;stroke-width:1;" x1="495.9059" x2="495.9059" y1="639.5898" y2="671.5898"/><polygon fill="#000000" points="491.9059,661.5898,495.9059,671.5898,499.9059,661.5898,495.9059,665.5898" style="stroke:#000000;stroke-width:1;stroke-linejoin:miter;stroke-miterlimit:10;"/><line style="stroke:#000000;stroke-width:1;" x1="348.6836" x2="609.2628" y1="531.0928" y2="531.0928"/><line style="stroke:#000000;stroke-width:1;" x1="609.2628" x2="609.2628" y1="531.0928" y2="576.0908"/><polygon fill="#000000" points="605.2628,566.0908,609.2628,576.0908,613.2628,566.0908,609.2628,570.0908" style="stroke:#000000;stroke-width:1;stroke-linejoin:miter;stroke-miterlimit:10;"/><text fill="#000000" font-family="Arial" font-size="10" lengthAdjust="spacing" textLength="79.4727" x="609.2628" y="557.2222">Inspect Transcript</text><line style="stroke:#000000;stroke-width:1;" x1="348.6836" x2="1586.949" y1="531.0928" y2="531.0928"/><line style="stroke:#000000;stroke-width:1;" x1="1586.949" x2="1586.949" y1="531.0928" y2="576.0908"/><polygon fill="#000000" points="1582.949,566.0908,1586.949,576.0908,1590.949,566.0908,1586.949,570.0908" style="stroke:#000000;stroke-width:1;stroke-linejoin:miter;stroke-miterlimit:10;"/><text fill="#000000" font-family="Arial" font-size="10" lengthAdjust="spacing" textLength="76.1377" x="1586.949" y="557.2222">Delete Transcript</text><line style="stroke:#000000;stroke-width:1;" x1="348.6836" x2="1879.0321" y1="531.0928" y2="531.0928"/><line style="stroke:#000000;stroke-width:1;" x1="1879.0321" x2="1879.0321" y1="531.0928" y2="576.0908"/><polygon fill="#000000" points="1875.0321,566.0908,1879.0321,576.0908,1883.0321,566.0908,1879.0321,570.0908" style="stroke:#000000;stroke-width:1;stroke-linejoin:miter;stroke-miterlimit:10;"/><text fill="#000000" font-family="Arial" font-size="10" lengthAdjust="spacing" textLength="81.1572" x="1879.0321" y="557.2222">Inspect Failed Job</text><line style="stroke:#000000;stroke-width:1;" x1="348.6836" x2="2294.1304" y1="531.0928" y2="531.0928"/><line style="stroke:#000000;stroke-width:1;" x1="2294.1304" x2="2294.1304" y1="531.0928" y2="576.0908"/><polygon fill="#000000" points="2290.1304,566.0908,2294.1304,576.0908,2298.1304,566.0908,2294.1304,570.0908" style="stroke:#000000;stroke-width:1;stroke-linejoin:miter;stroke-miterlimit:10;"/><text fill="#000000" font-family="Arial" font-size="10" lengthAdjust="spacing" textLength="72.8076" x="2294.1304" y="557.2222">Retry Failed Job</text><line style="stroke:#000000;stroke-width:1;" x1="609.2628" x2="609.2628" y1="607.5898" y2="1036.5859"/><line style="stroke:#000000;stroke-width:1;" x1="609.2628" x2="314.4941" y1="1036.5859" y2="1036.5859"/><polygon fill="#000000" points="324.4941,1032.5859,314.4941,1036.5859,324.4941,1040.5859,320.4941,1036.5859" style="stroke:#000000;stroke-width:1;stroke-linejoin:miter;stroke-miterlimit:10;"/><line style="stroke:#000000;stroke-width:1;" x1="907.1547" x2="907.1547" y1="856.0869" y2="1036.5859"/><line style="stroke:#000000;stroke-width:1;" x1="907.1547" x2="314.4941" y1="1036.5859" y2="1036.5859"/><polygon fill="#000000" points="324.4941,1032.5859,314.4941,1036.5859,324.4941,1040.5859,320.4941,1036.5859" style="stroke:#000000;stroke-width:1;stroke-linejoin:miter;stroke-miterlimit:10;"/><line style="stroke:#000000;stroke-width:1;" x1="1879.0321" x2="1879.0321" y1="607.5898" y2="1036.5859"/><line style="stroke:#000000;stroke-width:1;" x1="1879.0321" x2="314.4941" y1="1036.5859" y2="1036.5859"/><polygon fill="#000000" points="324.4941,1032.5859,314.4941,1036.5859,324.4941,1040.5859,320.4941,1036.5859" style="stroke:#000000;stroke-width:1;stroke-linejoin:miter;stroke-miterlimit:10;"/><line style="stroke:#000000;stroke-width:1;" x1="2294.1304" x2="2294.1304" y1="1014.5859" y2="1036.5859"/><line style="stroke:#000000;stroke-width:1;" x1="2294.1304" x2="314.4941" y1="1036.5859" y2="1036.5859"/><polygon fill="#000000" points="324.4941,1032.5859,314.4941,1036.5859,324.4941,1040.5859,320.4941,1036.5859" style="stroke:#000000;stroke-width:1;stroke-linejoin:miter;stroke-miterlimit:10;"/><line style="stroke:#000000;stroke-width:1;" x1="302.4941" x2="302.4941" y1="1048.5859" y2="1053.5859"/><line style="stroke:#000000;stroke-width:1;" x1="302.4941" x2="1519.1823" y1="1053.5859" y2="1053.5859"/><line style="stroke:#000000;stroke-width:1;" x1="1519.1823" x2="1519.1823" y1="1053.5859" y2="1068.5859"/><polygon fill="#000000" points="1515.1823,1058.5859,1519.1823,1068.5859,1523.1823,1058.5859,1519.1823,1062.5859" style="stroke:#000000;stroke-width:1;stroke-linejoin:miter;stroke-miterlimit:10;"/><text fill="#000000" font-family="Arial" font-size="10" lengthAdjust="spacing" textLength="58.9063" x="250.9185" y="62.4785">Administrator</text><text fill="#000000" font-family="Arial" font-size="10" lengthAdjust="spacing" textLength="33.3398" x="1500.606" y="62.4785">System</text><text fill="#000000" font-family="Arial" font-size="10" lengthAdjust="spacing" textLength="84.4678" x="2518.5546" y="62.4785">Processing Worker</text><?plantuml-src ZLJlRzis4Fskl-A6Vac05cW2REZY3uKJrq269Uti_a0n3CLPEib4A58bgRZUil-zHr9I95bEcm098DuzldllyNwf31ObGctf8nadKfJNEMYLs3kXAZHOmWRJkyBeMcLNMce3kwrmr3ktMypqJgW2SfIsVv9HZhLqIwtSBPO4SoDGJf-lnRy4Po_xXm8B_d-3fX0ApivxHqfdPAc2izzw7msgk_3nLUzZYTzko5eiA5nmtZ-R6wDtSQIDv1dx8-r4AL7HfJOPcQThtWidwNAaqRFbkVyzLkuddaR5r8bxuVRmNm9mEQayVp-W1J2615W8BBNAZe6qnqUmMaC0tc6MUNT_JVvFd6SFyyMNbx_3F2k54jOPPCe4xza0cnfHEK2LmHzw0pUeMFcIb4kIXrwvDW-9TMXSSl6s8jLlPHQ-iu-jrOpRrtlhg7n8BZYc8j_300xcQSespnAHmycyTbjjc7xs-XJSbl5F_lvCzfzJdkLYHSu86j2r7T-rGySFWN68WynjjpfsBKZjn_EsLm9Ofwk4L2Romp4lreGctJw7fP2EpFDmrveafGvMbBBu_U4y_VWLSk_On00BOIk9-mQ3iWvbJBcfQ-1kjMDR6V97X3cdBjt2IOVl4wdLQPAYnxzMjlBS7-NpjtK3yCLZHnVaK4WMAWAi2AqLXOAtEqN6RaKL04Oi6ASHwPPsiJGeTwLLBamv6ztv4QN8qB6hl2t8mGTBnjTuFMFplQyub9DxFrIXiwCJxbbgoQy2RgZSnA-pMDoeEQypuU3DFISxbAyeDsIty2TFu2k7NlJSk5Q1I3DHivf2Ht0ZIhJWoHqz8N6B5WhPd5QMvh5CoUcLwChJM4wJWlGkwYlRDR-HeX0R8Nb9HL4yTFmeQGeml9ymqNLPoR0EE5RzXA33MLCwu6dhyCRoMaxZ_hmX_cTioi2OxiubXxKsr3K5NwRRk-PtHdkUVadoBk8j8kc5toN4FDW3aRQ-FE8T9EGALKgoup7EHFlkF3qAs-fOA9e1F8s2WXW7Bz2P_HD0pOADPIEtuuBo1_I4uuVnymF6q4NSsKJK_ggffhZz2nJgCLpnu4TXQ1zoNE9D2iRXQ6rzw5dsIPixQbZ6H97VxolwwkyD4isE960mm63fUeaYxq6WZje_x1p59dRntxYS4x-_lmC0?></g></svg>