<svg xmlns="http://www.w3.org/2000/svg" xmlns:xlink="http://www.w3.org/1999/xlink" contentStyleType="text/css" data-diagram-type="ACTIVITY" height="646px" preserveAspectRatio="none" style="width:2158px;height:646px;background:#FFFFFF;" version="1.1" viewBox="0 0 2158 646" width="2158px" zoomAndPan="magnify"><?plantuml 1.2026.6?><defs/><g><g class="title" data-source-line="23"><text fill="#000000" font-family="Arial" font-size="14" font-weight="700" lengthAdjust="spacing" textLength="154.0479" x="1001.2559" y="33.1318">AD_08 Manage Folders</text></g><rect fill="#F2F2F2" height="11.499" style="stroke:#F2F2F2;stroke-width:1;" width="2111.5596" x="20" y="53.0986"/><ellipse cx="267.8291" cy="79.5977" fill="#222222" rx="10" ry="10" style="stroke:#222222;stroke-width:1;"/><rect fill="#FFFFFF" height="31.499" rx="12.5" ry="12.5" style="stroke:#000000;stroke-width:0.5;" width="80.5859" x="227.5361" y="109.5977"/><text fill="#000000" font-family="Arial" font-size="10" lengthAdjust="spacing" textLength="60.5859" x="237.5361" y="128.9775">Open Folders</text><polygon fill="#FFFFFF" points="233.6396,212.5957,302.0186,212.5957,314.0186,224.5957,302.0186,236.5957,233.6396,236.5957,221.6396,224.5957,233.6396,212.5957" style="stroke:#000000;stroke-width:0.5;stroke-linejoin:miter;stroke-miterlimit:10;"/><text fill="#000000" font-family="Arial" font-size="10" lengthAdjust="spacing" textLength="68.3789" x="233.6396" y="228.2261">Selected action</text><rect fill="#FFFFFF" height="31.499" rx="12.5" ry="12.5" style="stroke:#000000;stroke-width:0.5;" width="185.6396" x="26" y="269.5938"/><text fill="#000000" font-family="Arial" font-size="10" lengthAdjust="spacing" textLength="165.6396" x="36" y="288.9736">Enter Name and Optional Description</text><polygon fill="#FFFFFF" points="267.8291,559.5898,267.8291,559.5898,279.8291,571.5898,267.8291,583.5898,267.8291,583.5898,255.8291,571.5898,267.8291,559.5898" style="stroke:#000000;stroke-width:0.5;stroke-linejoin:miter;stroke-miterlimit:10;"/><line style="stroke:#000000;stroke-width:1.5;" x1="20" x2="20" y1="53.0986" y2="625.5898"/><rect fill="#FFFFFF" height="31.499" rx="12.5" ry="12.5" style="stroke:#000000;stroke-width:0.5;" width="139.4873" x="1146.3508" y="161.0967"/><text fill="#000000" font-family="Arial" font-size="10" lengthAdjust="spacing" textLength="119.4873" x="1156.3508" y="180.4766">Display Accessible Folders</text><rect fill="#FFFFFF" height="31.499" rx="12.5" ry="12.5" style="stroke:#000000;stroke-width:0.5;" width="197.8857" x="389.3313" y="321.0928"/><text fill="#000000" font-family="Arial" font-size="10" lengthAdjust="spacing" textLength="177.8857" x="399.3313" y="340.4727">Check Maintenance and Validate Folder</text><polygon fill="#FFFFFF" points="474.3752,387.5918,502.1731,387.5918,514.1731,399.5918,502.1731,411.5918,474.3752,411.5918,462.3752,399.5918,474.3752,387.5918" style="stroke:#000000;stroke-width:0.5;stroke-linejoin:miter;stroke-miterlimit:10;"/><text fill="#000000" font-family="Arial" font-size="10" lengthAdjust="spacing" textLength="27.7979" x="474.3752" y="403.2222">Valid?</text><text fill="#000000" font-family="Arial" font-size="10" lengthAdjust="spacing" textLength="22.7881" x="439.5872" y="397.4727">[Yes]</text><text fill="#000000" font-family="Arial" font-size="10" lengthAdjust="spacing" textLength="18.3398" x="514.1731" y="397.4727">[No]</text><rect fill="#FFFFFF" height="31.499" rx="12.5" ry="12.5" style="stroke:#000000;stroke-width:0.5;" width="149.5117" x="335.0186" y="421.5918"/><text fill="#000000" font-family="Arial" font-size="10" lengthAdjust="spacing" textLength="129.5117" x="345.0186" y="440.9717">Save Folder and Refresh List</text><rect fill="#FFFFFF" height="31.499" rx="12.5" ry="12.5" style="stroke:#000000;stroke-width:0.5;" width="124.4873" x="504.5303" y="421.5918"/><text fill="#000000" font-family="Arial" font-size="10" lengthAdjust="spacing" textLength="104.4873" x="514.5303" y="440.9717">Display Validation Error</text><polygon fill="#FFFFFF" points="488.2742,459.0908,500.2742,471.0908,488.2742,483.0908,476.2742,471.0908,488.2742,459.0908" style="stroke:#000000;stroke-width:0.5;stroke-linejoin:miter;stroke-miterlimit:10;"/><rect fill="#FFFFFF" height="31.499" rx="12.5" ry="12.5" style="stroke:#000000;stroke-width:0.5;" width="78.916" x="662.9165" y="269.5938"/><text fill="#000000" font-family="Arial" font-size="10" lengthAdjust="spacing" textLength="58.916" x="672.9165" y="288.9736">Select Folder</text><rect fill="#FFFFFF" height="31.499" rx="12.5" ry="12.5" style="stroke:#000000;stroke-width:0.5;" width="126.7139" x="639.0176" y="321.0928"/><text fill="#000000" font-family="Arial" font-size="10" lengthAdjust="spacing" textLength="106.7139" x="649.0176" y="340.4727">Display Folder Contents</text><rect fill="#FFFFFF" height="31.499" rx="12.5" ry="12.5" style="stroke:#000000;stroke-width:0.5;" width="117.832" x="834.6895" y="269.5938"/><text fill="#000000" font-family="Arial" font-size="10" lengthAdjust="spacing" textLength="97.832" x="844.6895" y="288.9736">Enter Updated Details</text><rect fill="#FFFFFF" height="31.499" rx="12.5" ry="12.5" style="stroke:#000000;stroke-width:0.5;" width="188.4424" x="799.3843" y="321.0928"/><text fill="#000000" font-family="Arial" font-size="10" lengthAdjust="spacing" textLength="168.4424" x="809.3843" y="340.4727">Check Maintenance and Save Update</text><polygon fill="#FFFFFF" points="849.9702,387.5918,937.2407,387.5918,949.2407,399.5918,937.2407,411.5918,849.9702,411.5918,837.9702,399.5918,849.9702,387.5918" style="stroke:#000000;stroke-width:0.5;stroke-linejoin:miter;stroke-miterlimit:10;"/><text fill="#000000" font-family="Arial" font-size="10" lengthAdjust="spacing" textLength="87.2705" x="849.9702" y="403.2222">Update successful?</text><text fill="#000000" font-family="Arial" font-size="10" lengthAdjust="spacing" textLength="22.7881" x="815.1821" y="397.4727">[Yes]</text><text fill="#000000" font-family="Arial" font-size="10" lengthAdjust="spacing" textLength="18.3398" x="949.2407" y="397.4727">[No]</text><rect fill="#FFFFFF" height="31.499" rx="12.5" ry="12.5" style="stroke:#000000;stroke-width:0.5;" width="104.4775" x="775.7314" y="421.5918"/><text fill="#000000" font-family="Arial" font-size="10" lengthAdjust="spacing" textLength="84.4775" x="785.7314" y="440.9717">Refresh Folder List</text><rect fill="#FFFFFF" height="31.499" rx="12.5" ry="12.5" style="stroke:#000000;stroke-width:0.5;" width="112.8125" x="902.8345" y="421.5918"/><text fill="#000000" font-family="Arial" font-size="10" lengthAdjust="spacing" textLength="92.8125" x="912.8345" y="440.9717">Display Update Error</text><polygon fill="#FFFFFF" points="893.6055,459.0908,905.6055,471.0908,893.6055,483.0908,881.6055,471.0908,893.6055,459.0908" style="stroke:#000000;stroke-width:0.5;stroke-linejoin:miter;stroke-miterlimit:10;"/><rect fill="#FFFFFF" height="31.499" rx="12.5" ry="12.5" style="stroke:#000000;stroke-width:0.5;" width="96.7139" x="1255.0299" y="269.5938"/><text fill="#000000" font-family="Arial" font-size="10" lengthAdjust="spacing" textLength="76.7139" x="1265.0299" y="288.9736">Request Deletion</text><polygon fill="#FFFFFF" points="1258.9191,321.0928,1347.8546,321.0928,1359.8546,333.0928,1347.8546,345.0928,1258.9191,345.0928,1246.9191,333.0928,1258.9191,321.0928" style="stroke:#000000;stroke-width:0.5;stroke-linejoin:miter;stroke-miterlimit:10;"/><text fill="#000000" font-family="Arial" font-size="10" lengthAdjust="spacing" textLength="88.9355" x="1258.9191" y="336.7231">Deletion confirmed?</text><text fill="#000000" font-family="Arial" font-size="10" lengthAdjust="spacing" textLength="22.7881" x="1224.131" y="330.9736">[Yes]</text><text fill="#000000" font-family="Arial" font-size="10" lengthAdjust="spacing" textLength="18.3398" x="1359.8546" y="330.9736">[No]</text><rect fill="#FFFFFF" height="31.499" rx="12.5" ry="12.5" style="stroke:#000000;stroke-width:0.5;" width="195.6592" x="1090.1038" y="355.0928"/><text fill="#000000" font-family="Arial" font-size="10" lengthAdjust="spacing" textLength="175.6592" x="1100.1038" y="374.4727">Check Maintenance and Deletion Rules</text><polygon fill="#FFFFFF" points="1148.4631,421.5918,1227.4036,421.5918,1239.4036,433.5918,1227.4036,445.5918,1148.4631,445.5918,1136.4631,433.5918,1148.4631,421.5918" style="stroke:#000000;stroke-width:0.5;stroke-linejoin:miter;stroke-miterlimit:10;"/><text fill="#000000" font-family="Arial" font-size="10" lengthAdjust="spacing" textLength="78.9404" x="1148.4631" y="437.2222">Deletion allowed?</text><text fill="#000000" font-family="Arial" font-size="10" lengthAdjust="spacing" textLength="22.7881" x="1113.675" y="431.4727">[Yes]</text><text fill="#000000" font-family="Arial" font-size="10" lengthAdjust="spacing" textLength="18.3398" x="1239.4036" y="431.4727">[No]</text><rect fill="#FFFFFF" height="31.499" rx="12.5" ry="12.5" style="stroke:#000000;stroke-width:0.5;" width="155.625" x="1025.647" y="455.5918"/><text fill="#000000" font-family="Arial" font-size="10" lengthAdjust="spacing" textLength="135.625" x="1035.647" y="474.9717">Delete Folder and Refresh List</text><rect fill="#FFFFFF" height="31.499" rx="12.5" ry="12.5" style="stroke:#000000;stroke-width:0.5;" width="142.2705" x="1201.272" y="455.5918"/><text fill="#000000" font-family="Arial" font-size="10" lengthAdjust="spacing" textLength="122.2705" x="1211.272" y="474.9717">Display Deletion Restriction</text><polygon fill="#FFFFFF" points="1187.9333,493.0908,1199.9333,505.0908,1187.9333,517.0908,1175.9333,505.0908,1187.9333,493.0908" style="stroke:#000000;stroke-width:0.5;stroke-linejoin:miter;stroke-miterlimit:10;"/><rect fill="#FFFFFF" height="31.499" rx="12.5" ry="12.5" style="stroke:#000000;stroke-width:0.5;" width="90.5957" x="1373.5425" y="355.0928"/><text fill="#000000" font-family="Arial" font-size="10" lengthAdjust="spacing" textLength="70.5957" x="1383.5425" y="374.4727">Cancel Deletion</text><polygon fill="#FFFFFF" points="1303.3868,523.0908,1315.3868,535.0908,1303.3868,547.0908,1291.3868,535.0908,1303.3868,523.0908" style="stroke:#000000;stroke-width:0.5;stroke-linejoin:miter;stroke-miterlimit:10;"/><rect fill="#FFFFFF" height="31.499" rx="12.5" ry="12.5" style="stroke:#000000;stroke-width:0.5;" width="195.625" x="1516.2341" y="269.5938"/><text fill="#000000" font-family="Arial" font-size="10" lengthAdjust="spacing" textLength="175.625" x="1526.2341" y="288.9736">Select Transcript by Reference Number</text><rect fill="#FFFFFF" height="31.499" rx="12.5" ry="12.5" style="stroke:#000000;stroke-width:0.5;" width="245.1123" x="1491.4905" y="321.0928"/><text fill="#000000" font-family="Arial" font-size="10" lengthAdjust="spacing" textLength="225.1123" x="1501.4905" y="340.4727">Check Access, Maintenance, and One-Folder Rule</text><polygon fill="#FFFFFF" points="1566.7981,387.5918,1661.2952,387.5918,1673.2952,399.5918,1661.2952,411.5918,1566.7981,411.5918,1554.7981,399.5918,1566.7981,387.5918" style="stroke:#000000;stroke-width:0.5;stroke-linejoin:miter;stroke-miterlimit:10;"/><text fill="#000000" font-family="Arial" font-size="10" lengthAdjust="spacing" textLength="94.4971" x="1566.7981" y="403.2222">Assignment allowed?</text><text fill="#000000" font-family="Arial" font-size="10" lengthAdjust="spacing" textLength="22.7881" x="1532.01" y="397.4727">[Yes]</text><text fill="#000000" font-family="Arial" font-size="10" lengthAdjust="spacing" textLength="18.3398" x="1673.2952" y="397.4727">[No]</text><rect fill="#FFFFFF" height="31.499" rx="12.5" ry="12.5" style="stroke:#000000;stroke-width:0.5;" width="123.9258" x="1476.6455" y="421.5918"/><text fill="#000000" font-family="Arial" font-size="10" lengthAdjust="spacing" textLength="103.9258" x="1486.6455" y="440.9717">Add or Move Transcript</text><rect fill="#FFFFFF" height="31.499" rx="12.5" ry="12.5" style="stroke:#000000;stroke-width:0.5;" width="128.9404" x="1474.1382" y="488.0908"/><text fill="#000000" font-family="Arial" font-size="10" lengthAdjust="spacing" textLength="108.9404" x="1484.1382" y="507.4707">Refresh Folder Contents</text><rect fill="#FFFFFF" height="31.499" rx="12.5" ry="12.5" style="stroke:#000000;stroke-width:0.5;" width="132.8125" x="1623.0786" y="421.5918"/><text fill="#000000" font-family="Arial" font-size="10" lengthAdjust="spacing" textLength="112.8125" x="1633.0786" y="440.9717">Display Assignment Error</text><polygon fill="#FFFFFF" points="1614.0466,525.5898,1626.0466,537.5898,1614.0466,549.5898,1602.0466,537.5898,1614.0466,525.5898" style="stroke:#000000;stroke-width:0.5;stroke-linejoin:miter;stroke-miterlimit:10;"/><rect fill="#FFFFFF" height="31.499" rx="12.5" ry="12.5" style="stroke:#000000;stroke-width:0.5;" width="146.1572" x="1799.8022" y="269.5938"/><text fill="#000000" font-family="Arial" font-size="10" lengthAdjust="spacing" textLength="126.1572" x="1809.8022" y="288.9736">Select Transcript to Remove</text><rect fill="#FFFFFF" height="31.499" rx="12.5" ry="12.5" style="stroke:#000000;stroke-width:0.5;" width="143.3838" x="1801.189" y="321.0928"/><text fill="#000000" font-family="Arial" font-size="10" lengthAdjust="spacing" textLength="123.3838" x="1811.189" y="340.4727">Remove Folder Assignment</text><rect fill="#FFFFFF" height="31.499" rx="12.5" ry="12.5" style="stroke:#000000;stroke-width:0.5;" width="213.9795" x="1765.8911" y="387.5918"/><text fill="#000000" font-family="Arial" font-size="10" lengthAdjust="spacing" textLength="193.9795" x="1775.8911" y="406.9717">Keep Transcript Record and Refresh Folder</text><rect fill="#FFFFFF" height="31.499" rx="12.5" ry="12.5" style="stroke:#000000;stroke-width:0.5;" width="137.2998" x="1989.8706" y="269.5938"/><text fill="#000000" font-family="Arial" font-size="10" lengthAdjust="spacing" textLength="117.2998" x="1999.8706" y="288.9736">Leave Folders Unchanged</text><ellipse cx="1216.0945" cy="614.5898" fill="none" rx="11" ry="11" style="stroke:#222222;stroke-width:1;"/><ellipse cx="1216.0945" cy="614.5898" fill="#222222" rx="6" ry="6" style="stroke:#222222;stroke-width:1;"/><line style="stroke:#000000;stroke-width:1.5;" x1="329.0186" x2="329.0186" y1="53.0986" y2="625.5898"/><line style="stroke:#000000;stroke-width:1.5;" x1="2131.1704" x2="2131.1704" y1="53.0986" y2="625.5898"/><line style="stroke:#000000;stroke-width:1;" x1="267.8291" x2="267.8291" y1="89.5977" y2="109.5977"/><polygon fill="#000000" points="263.8291,99.5977,267.8291,109.5977,271.8291,99.5977,267.8291,103.5977" style="stroke:#000000;stroke-width:1;stroke-linejoin:miter;stroke-miterlimit:10;"/><line style="stroke:#000000;stroke-width:1;" x1="221.6396" x2="118.8198" y1="224.5957" y2="224.5957"/><line style="stroke:#000000;stroke-width:1;" x1="118.8198" x2="118.8198" y1="224.5957" y2="269.5938"/><polygon fill="#000000" points="114.8198,259.5938,118.8198,269.5938,122.8198,259.5938,118.8198,263.5938" style="stroke:#000000;stroke-width:1;stroke-linejoin:miter;stroke-miterlimit:10;"/><text fill="#000000" font-family="Arial" font-size="10" lengthAdjust="spacing" textLength="61.1377" x="118.8198" y="250.7251">Create Folder</text><line style="stroke:#000000;stroke-width:1;" x1="462.3752" x2="409.7744" y1="399.5918" y2="399.5918"/><line style="stroke:#000000;stroke-width:1;" x1="409.7744" x2="409.7744" y1="399.5918" y2="421.5918"/><polygon fill="#000000" points="405.7744,411.5918,409.7744,421.5918,413.7744,411.5918,409.7744,415.5918" style="stroke:#000000;stroke-width:1;stroke-linejoin:miter;stroke-miterlimit:10;"/><line style="stroke:#000000;stroke-width:1;" x1="514.1731" x2="566.7739" y1="399.5918" y2="399.5918"/><line style="stroke:#000000;stroke-width:1;" x1="566.7739" x2="566.7739" y1="399.5918" y2="421.5918"/><polygon fill="#000000" points="562.7739,411.5918,566.7739,421.5918,570.7739,411.5918,566.7739,415.5918" style="stroke:#000000;stroke-width:1;stroke-linejoin:miter;stroke-miterlimit:10;"/><line style="stroke:#000000;stroke-width:1;" x1="409.7744" x2="409.7744" y1="453.0908" y2="471.0908"/><line style="stroke:#000000;stroke-width:1;" x1="409.7744" x2="476.2742" y1="471.0908" y2="471.0908"/><polygon fill="#000000" points="466.2742,467.0908,476.2742,471.0908,466.2742,475.0908,470.2742,471.0908" style="stroke:#000000;stroke-width:1;stroke-linejoin:miter;stroke-miterlimit:10;"/><line style="stroke:#000000;stroke-width:1;" x1="566.7739" x2="566.7739" y1="453.0908" y2="471.0908"/><line style="stroke:#000000;stroke-width:1;" x1="566.7739" x2="500.2742" y1="471.0908" y2="471.0908"/><polygon fill="#000000" points="510.2742,467.0908,500.2742,471.0908,510.2742,475.0908,506.2742,471.0908" style="stroke:#000000;stroke-width:1;stroke-linejoin:miter;stroke-miterlimit:10;"/><line style="stroke:#000000;stroke-width:1;" x1="488.2742" x2="488.2742" y1="352.5918" y2="387.5918"/><polygon fill="#000000" points="484.2742,377.5918,488.2742,387.5918,492.2742,377.5918,488.2742,381.5918" style="stroke:#000000;stroke-width:1;stroke-linejoin:miter;stroke-miterlimit:10;"/><line style="stroke:#000000;stroke-width:1;" x1="702.3745" x2="702.3745" y1="301.0928" y2="321.0928"/><polygon fill="#000000" points="698.3745,311.0928,702.3745,321.0928,706.3745,311.0928,702.3745,315.0928" style="stroke:#000000;stroke-width:1;stroke-linejoin:miter;stroke-miterlimit:10;"/><line style="stroke:#000000;stroke-width:1;" x1="893.6055" x2="893.6055" y1="301.0928" y2="321.0928"/><polygon fill="#000000" points="889.6055,311.0928,893.6055,321.0928,897.6055,311.0928,893.6055,315.0928" style="stroke:#000000;stroke-width:1;stroke-linejoin:miter;stroke-miterlimit:10;"/><line style="stroke:#000000;stroke-width:1;" x1="837.9702" x2="827.9702" y1="399.5918" y2="399.5918"/><line style="stroke:#000000;stroke-width:1;" x1="827.9702" x2="827.9702" y1="399.5918" y2="421.5918"/><polygon fill="#000000" points="823.9702,411.5918,827.9702,421.5918,831.9702,411.5918,827.9702,415.5918" style="stroke:#000000;stroke-width:1;stroke-linejoin:miter;stroke-miterlimit:10;"/><line style="stroke:#000000;stroke-width:1;" x1="949.2407" x2="959.2407" y1="399.5918" y2="399.5918"/><line style="stroke:#000000;stroke-width:1;" x1="959.2407" x2="959.2407" y1="399.5918" y2="421.5918"/><polygon fill="#000000" points="955.2407,411.5918,959.2407,421.5918,963.2407,411.5918,959.2407,415.5918" style="stroke:#000000;stroke-width:1;stroke-linejoin:miter;stroke-miterlimit:10;"/><line style="stroke:#000000;stroke-width:1;" x1="827.9702" x2="827.9702" y1="453.0908" y2="471.0908"/><line style="stroke:#000000;stroke-width:1;" x1="827.9702" x2="881.6055" y1="471.0908" y2="471.0908"/><polygon fill="#000000" points="871.6055,467.0908,881.6055,471.0908,871.6055,475.0908,875.6055,471.0908" style="stroke:#000000;stroke-width:1;stroke-linejoin:miter;stroke-miterlimit:10;"/><line style="stroke:#000000;stroke-width:1;" x1="959.2407" x2="959.2407" y1="453.0908" y2="471.0908"/><line style="stroke:#000000;stroke-width:1;" x1="959.2407" x2="905.6055" y1="471.0908" y2="471.0908"/><polygon fill="#000000" points="915.6055,467.0908,905.6055,471.0908,915.6055,475.0908,911.6055,471.0908" style="stroke:#000000;stroke-width:1;stroke-linejoin:miter;stroke-miterlimit:10;"/><line style="stroke:#000000;stroke-width:1;" x1="893.6055" x2="893.6055" y1="352.5918" y2="387.5918"/><polygon fill="#000000" points="889.6055,377.5918,893.6055,387.5918,897.6055,377.5918,893.6055,381.5918" style="stroke:#000000;stroke-width:1;stroke-linejoin:miter;stroke-miterlimit:10;"/><line style="stroke:#000000;stroke-width:1;" x1="1136.4631" x2="1103.4595" y1="433.5918" y2="433.5918"/><line style="stroke:#000000;stroke-width:1;" x1="1103.4595" x2="1103.4595" y1="433.5918" y2="455.5918"/><polygon fill="#000000" points="1099.4595,445.5918,1103.4595,455.5918,1107.4595,445.5918,1103.4595,449.5918" style="stroke:#000000;stroke-width:1;stroke-linejoin:miter;stroke-miterlimit:10;"/><line style="stroke:#000000;stroke-width:1;" x1="1239.4036" x2="1272.4072" y1="433.5918" y2="433.5918"/><line style="stroke:#000000;stroke-width:1;" x1="1272.4072" x2="1272.4072" y1="433.5918" y2="455.5918"/><polygon fill="#000000" points="1268.4072,445.5918,1272.4072,455.5918,1276.4072,445.5918,1272.4072,449.5918" style="stroke:#000000;stroke-width:1;stroke-linejoin:miter;stroke-miterlimit:10;"/><line style="stroke:#000000;stroke-width:1;" x1="1103.4595" x2="1103.4595" y1="487.0908" y2="505.0908"/><line style="stroke:#000000;stroke-width:1;" x1="1103.4595" x2="1175.9333" y1="505.0908" y2="505.0908"/><polygon fill="#000000" points="1165.9333,501.0908,1175.9333,505.0908,1165.9333,509.0908,1169.9333,505.0908" style="stroke:#000000;stroke-width:1;stroke-linejoin:miter;stroke-miterlimit:10;"/><line style="stroke:#000000;stroke-width:1;" x1="1272.4072" x2="1272.4072" y1="487.0908" y2="505.0908"/><line style="stroke:#000000;stroke-width:1;" x1="1272.4072" x2="1199.9333" y1="505.0908" y2="505.0908"/><polygon fill="#000000" points="1209.9333,501.0908,1199.9333,505.0908,1209.9333,509.0908,1205.9333,505.0908" style="stroke:#000000;stroke-width:1;stroke-linejoin:miter;stroke-miterlimit:10;"/><line style="stroke:#000000;stroke-width:1;" x1="1187.9333" x2="1187.9333" y1="386.5918" y2="421.5918"/><polygon fill="#000000" points="1183.9333,411.5918,1187.9333,421.5918,1191.9333,411.5918,1187.9333,415.5918" style="stroke:#000000;stroke-width:1;stroke-linejoin:miter;stroke-miterlimit:10;"/><line style="stroke:#000000;stroke-width:1;" x1="1246.9191" x2="1187.9333" y1="333.0928" y2="333.0928"/><line style="stroke:#000000;stroke-width:1;" x1="1187.9333" x2="1187.9333" y1="333.0928" y2="355.0928"/><polygon fill="#000000" points="1183.9333,345.0928,1187.9333,355.0928,1191.9333,345.0928,1187.9333,349.0928" style="stroke:#000000;stroke-width:1;stroke-linejoin:miter;stroke-miterlimit:10;"/><line style="stroke:#000000;stroke-width:1;" x1="1359.8546" x2="1418.8403" y1="333.0928" y2="333.0928"/><line style="stroke:#000000;stroke-width:1;" x1="1418.8403" x2="1418.8403" y1="333.0928" y2="355.0928"/><polygon fill="#000000" points="1414.8403,345.0928,1418.8403,355.0928,1422.8403,345.0928,1418.8403,349.0928" style="stroke:#000000;stroke-width:1;stroke-linejoin:miter;stroke-miterlimit:10;"/><line style="stroke:#000000;stroke-width:1;" x1="1187.9333" x2="1187.9333" y1="517.0908" y2="535.0908"/><line style="stroke:#000000;stroke-width:1;" x1="1187.9333" x2="1291.3868" y1="535.0908" y2="535.0908"/><polygon fill="#000000" points="1281.3868,531.0908,1291.3868,535.0908,1281.3868,539.0908,1285.3868,535.0908" style="stroke:#000000;stroke-width:1;stroke-linejoin:miter;stroke-miterlimit:10;"/><line style="stroke:#000000;stroke-width:1;" x1="1418.8403" x2="1418.8403" y1="386.5918" y2="535.0908"/><line style="stroke:#000000;stroke-width:1;" x1="1418.8403" x2="1315.3868" y1="535.0908" y2="535.0908"/><polygon fill="#000000" points="1325.3868,531.0908,1315.3868,535.0908,1325.3868,539.0908,1321.3868,535.0908" style="stroke:#000000;stroke-width:1;stroke-linejoin:miter;stroke-miterlimit:10;"/><line style="stroke:#000000;stroke-width:1;" x1="1303.3868" x2="1303.3868" y1="301.0928" y2="321.0928"/><polygon fill="#000000" points="1299.3868,311.0928,1303.3868,321.0928,1307.3868,311.0928,1303.3868,315.0928" style="stroke:#000000;stroke-width:1;stroke-linejoin:miter;stroke-miterlimit:10;"/><line style="stroke:#000000;stroke-width:1;" x1="1614.0466" x2="1614.0466" y1="301.0928" y2="321.0928"/><polygon fill="#000000" points="1610.0466,311.0928,1614.0466,321.0928,1618.0466,311.0928,1614.0466,315.0928" style="stroke:#000000;stroke-width:1;stroke-linejoin:miter;stroke-miterlimit:10;"/><line style="stroke:#000000;stroke-width:1;" x1="1538.6084" x2="1538.6084" y1="453.0908" y2="488.0908"/><polygon fill="#000000" points="1534.6084,478.0908,1538.6084,488.0908,1542.6084,478.0908,1538.6084,482.0908" style="stroke:#000000;stroke-width:1;stroke-linejoin:miter;stroke-miterlimit:10;"/><line style="stroke:#000000;stroke-width:1;" x1="1554.7981" x2="1538.6084" y1="399.5918" y2="399.5918"/><line style="stroke:#000000;stroke-width:1;" x1="1538.6084" x2="1538.6084" y1="399.5918" y2="421.5918"/><polygon fill="#000000" points="1534.6084,411.5918,1538.6084,421.5918,1542.6084,411.5918,1538.6084,415.5918" style="stroke:#000000;stroke-width:1;stroke-linejoin:miter;stroke-miterlimit:10;"/><line style="stroke:#000000;stroke-width:1;" x1="1673.2952" x2="1689.4849" y1="399.5918" y2="399.5918"/><line style="stroke:#000000;stroke-width:1;" x1="1689.4849" x2="1689.4849" y1="399.5918" y2="421.5918"/><polygon fill="#000000" points="1685.4849,411.5918,1689.4849,421.5918,1693.4849,411.5918,1689.4849,415.5918" style="stroke:#000000;stroke-width:1;stroke-linejoin:miter;stroke-miterlimit:10;"/><line style="stroke:#000000;stroke-width:1;" x1="1538.6084" x2="1538.6084" y1="519.5898" y2="537.5898"/><line style="stroke:#000000;stroke-width:1;" x1="1538.6084" x2="1602.0466" y1="537.5898" y2="537.5898"/><polygon fill="#000000" points="1592.0466,533.5898,1602.0466,537.5898,1592.0466,541.5898,1596.0466,537.5898" style="stroke:#000000;stroke-width:1;stroke-linejoin:miter;stroke-miterlimit:10;"/><line style="stroke:#000000;stroke-width:1;" x1="1689.4849" x2="1689.4849" y1="453.0908" y2="537.5898"/><line style="stroke:#000000;stroke-width:1;" x1="1689.4849" x2="1626.0466" y1="537.5898" y2="537.5898"/><polygon fill="#000000" points="1636.0466,533.5898,1626.0466,537.5898,1636.0466,541.5898,1632.0466,537.5898" style="stroke:#000000;stroke-width:1;stroke-linejoin:miter;stroke-miterlimit:10;"/><line style="stroke:#000000;stroke-width:1;" x1="1614.0466" x2="1614.0466" y1="352.5918" y2="387.5918"/><polygon fill="#000000" points="1610.0466,377.5918,1614.0466,387.5918,1618.0466,377.5918,1614.0466,381.5918" style="stroke:#000000;stroke-width:1;stroke-linejoin:miter;stroke-miterlimit:10;"/><line style="stroke:#000000;stroke-width:1;" x1="1872.8809" x2="1872.8809" y1="301.0928" y2="321.0928"/><polygon fill="#000000" points="1868.8809,311.0928,1872.8809,321.0928,1876.8809,311.0928,1872.8809,315.0928" style="stroke:#000000;stroke-width:1;stroke-linejoin:miter;stroke-miterlimit:10;"/><line style="stroke:#000000;stroke-width:1;" x1="1872.8809" x2="1872.8809" y1="352.5918" y2="387.5918"/><polygon fill="#000000" points="1868.8809,377.5918,1872.8809,387.5918,1876.8809,377.5918,1872.8809,381.5918" style="stroke:#000000;stroke-width:1;stroke-linejoin:miter;stroke-miterlimit:10;"/><line style="stroke:#000000;stroke-width:1;" x1="267.8291" x2="267.8291" y1="141.0967" y2="146.0967"/><line style="stroke:#000000;stroke-width:1;" x1="267.8291" x2="1216.0945" y1="146.0967" y2="146.0967"/><line style="stroke:#000000;stroke-width:1;" x1="1216.0945" x2="1216.0945" y1="146.0967" y2="161.0967"/><polygon fill="#000000" points="1212.0945,151.0967,1216.0945,161.0967,1220.0945,151.0967,1216.0945,155.0967" style="stroke:#000000;stroke-width:1;stroke-linejoin:miter;stroke-miterlimit:10;"/><line style="stroke:#000000;stroke-width:1;" x1="118.8198" x2="118.8198" y1="301.0928" y2="306.0928"/><line style="stroke:#000000;stroke-width:1;" x1="118.8198" x2="488.2742" y1="306.0928" y2="306.0928"/><line style="stroke:#000000;stroke-width:1;" x1="488.2742" x2="488.2742" y1="306.0928" y2="321.0928"/><polygon fill="#000000" points="484.2742,311.0928,488.2742,321.0928,492.2742,311.0928,488.2742,315.0928" style="stroke:#000000;stroke-width:1;stroke-linejoin:miter;stroke-miterlimit:10;"/><line style="stroke:#000000;stroke-width:1;" x1="314.0186" x2="702.3745" y1="224.5957" y2="224.5957"/><line style="stroke:#000000;stroke-width:1;" x1="702.3745" x2="702.3745" y1="224.5957" y2="269.5938"/><polygon fill="#000000" points="698.3745,259.5938,702.3745,269.5938,706.3745,259.5938,702.3745,263.5938" style="stroke:#000000;stroke-width:1;stroke-linejoin:miter;stroke-miterlimit:10;"/><text fill="#000000" font-family="Arial" font-size="10" lengthAdjust="spacing" textLength="55.5859" x="702.3745" y="250.7251">Open Folder</text><line style="stroke:#000000;stroke-width:1;" x1="314.0186" x2="893.6055" y1="224.5957" y2="224.5957"/><line style="stroke:#000000;stroke-width:1;" x1="893.6055" x2="893.6055" y1="224.5957" y2="269.5938"/><polygon fill="#000000" points="889.6055,259.5938,893.6055,269.5938,897.6055,259.5938,893.6055,263.5938" style="stroke:#000000;stroke-width:1;stroke-linejoin:miter;stroke-miterlimit:10;"/><text fill="#000000" font-family="Arial" font-size="10" lengthAdjust="spacing" textLength="68.9209" x="893.6055" y="250.7251">Rename Folder</text><line style="stroke:#000000;stroke-width:1;" x1="314.0186" x2="1303.3868" y1="224.5957" y2="224.5957"/><line style="stroke:#000000;stroke-width:1;" x1="1303.3868" x2="1303.3868" y1="224.5957" y2="269.5938"/><polygon fill="#000000" points="1299.3868,259.5938,1303.3868,269.5938,1307.3868,259.5938,1303.3868,263.5938" style="stroke:#000000;stroke-width:1;stroke-linejoin:miter;stroke-miterlimit:10;"/><text fill="#000000" font-family="Arial" font-size="10" lengthAdjust="spacing" textLength="60.0293" x="1303.3868" y="250.7251">Delete Folder</text><line style="stroke:#000000;stroke-width:1;" x1="314.0186" x2="1614.0466" y1="224.5957" y2="224.5957"/><line style="stroke:#000000;stroke-width:1;" x1="1614.0466" x2="1614.0466" y1="224.5957" y2="269.5938"/><polygon fill="#000000" points="1610.0466,259.5938,1614.0466,269.5938,1618.0466,259.5938,1614.0466,263.5938" style="stroke:#000000;stroke-width:1;stroke-linejoin:miter;stroke-miterlimit:10;"/><text fill="#000000" font-family="Arial" font-size="10" lengthAdjust="spacing" textLength="103.9258" x="1614.0466" y="250.7251">Add or Move Transcript</text><line style="stroke:#000000;stroke-width:1;" x1="314.0186" x2="1872.8809" y1="224.5957" y2="224.5957"/><line style="stroke:#000000;stroke-width:1;" x1="1872.8809" x2="1872.8809" y1="224.5957" y2="269.5938"/><polygon fill="#000000" points="1868.8809,259.5938,1872.8809,269.5938,1876.8809,259.5938,1872.8809,263.5938" style="stroke:#000000;stroke-width:1;stroke-linejoin:miter;stroke-miterlimit:10;"/><text fill="#000000" font-family="Arial" font-size="10" lengthAdjust="spacing" textLength="84.4678" x="1872.8809" y="250.7251">Remove Transcript</text><line style="stroke:#000000;stroke-width:1;" x1="314.0186" x2="2058.5205" y1="224.5957" y2="224.5957"/><line style="stroke:#000000;stroke-width:1;" x1="2058.5205" x2="2058.5205" y1="224.5957" y2="269.5938"/><polygon fill="#000000" points="2054.5205,259.5938,2058.5205,269.5938,2062.5205,259.5938,2058.5205,263.5938" style="stroke:#000000;stroke-width:1;stroke-linejoin:miter;stroke-miterlimit:10;"/><text fill="#000000" font-family="Arial" font-size="10" lengthAdjust="spacing" textLength="31.1279" x="2058.5205" y="250.7251">Cancel</text><line style="stroke:#000000;stroke-width:1;" x1="488.2742" x2="488.2742" y1="483.0908" y2="571.5898"/><line style="stroke:#000000;stroke-width:1;" x1="488.2742" x2="279.8291" y1="571.5898" y2="571.5898"/><polygon fill="#000000" points="289.8291,567.5898,279.8291,571.5898,289.8291,575.5898,285.8291,571.5898" style="stroke:#000000;stroke-width:1;stroke-linejoin:miter;stroke-miterlimit:10;"/><line style="stroke:#000000;stroke-width:1;" x1="702.3745" x2="702.3745" y1="352.5918" y2="571.5898"/><line style="stroke:#000000;stroke-width:1;" x1="702.3745" x2="279.8291" y1="571.5898" y2="571.5898"/><polygon fill="#000000" points="289.8291,567.5898,279.8291,571.5898,289.8291,575.5898,285.8291,571.5898" style="stroke:#000000;stroke-width:1;stroke-linejoin:miter;stroke-miterlimit:10;"/><line style="stroke:#000000;stroke-width:1;" x1="893.6055" x2="893.6055" y1="483.0908" y2="571.5898"/><line style="stroke:#000000;stroke-width:1;" x1="893.6055" x2="279.8291" y1="571.5898" y2="571.5898"/><polygon fill="#000000" points="289.8291,567.5898,279.8291,571.5898,289.8291,575.5898,285.8291,571.5898" style="stroke:#000000;stroke-width:1;stroke-linejoin:miter;stroke-miterlimit:10;"/><line style="stroke:#000000;stroke-width:1;" x1="1303.3868" x2="1303.3868" y1="547.0908" y2="571.5898"/><line style="stroke:#000000;stroke-width:1;" x1="1303.3868" x2="279.8291" y1="571.5898" y2="571.5898"/><polygon fill="#000000" points="289.8291,567.5898,279.8291,571.5898,289.8291,575.5898,285.8291,571.5898" style="stroke:#000000;stroke-width:1;stroke-linejoin:miter;stroke-miterlimit:10;"/><line style="stroke:#000000;stroke-width:1;" x1="1614.0466" x2="1614.0466" y1="549.5898" y2="571.5898"/><line style="stroke:#000000;stroke-width:1;" x1="1614.0466" x2="279.8291" y1="571.5898" y2="571.5898"/><polygon fill="#000000" points="289.8291,567.5898,279.8291,571.5898,289.8291,575.5898,285.8291,571.5898" style="stroke:#000000;stroke-width:1;stroke-linejoin:miter;stroke-miterlimit:10;"/><line style="stroke:#000000;stroke-width:1;" x1="1872.8809" x2="1872.8809" y1="419.0908" y2="571.5898"/><line style="stroke:#000000;stroke-width:1;" x1="1872.8809" x2="279.8291" y1="571.5898" y2="571.5898"/><polygon fill="#000000" points="289.8291,567.5898,279.8291,571.5898,289.8291,575.5898,285.8291,571.5898" style="stroke:#000000;stroke-width:1;stroke-linejoin:miter;stroke-miterlimit:10;"/><line style="stroke:#000000;stroke-width:1;" x1="2058.5205" x2="2058.5205" y1="301.0928" y2="571.5898"/><line style="stroke:#000000;stroke-width:1;" x1="2058.5205" x2="279.8291" y1="571.5898" y2="571.5898"/><polygon fill="#000000" points="289.8291,567.5898,279.8291,571.5898,289.8291,575.5898,285.8291,571.5898" style="stroke:#000000;stroke-width:1;stroke-linejoin:miter;stroke-miterlimit:10;"/><line style="stroke:#000000;stroke-width:1;" x1="1216.0945" x2="1216.0945" y1="192.5957" y2="197.5957"/><line style="stroke:#000000;stroke-width:1;" x1="1216.0945" x2="267.8291" y1="197.5957" y2="197.5957"/><line style="stroke:#000000;stroke-width:1;" x1="267.8291" x2="267.8291" y1="197.5957" y2="212.5957"/><polygon fill="#000000" points="263.8291,202.5957,267.8291,212.5957,271.8291,202.5957,267.8291,206.5957" style="stroke:#000000;stroke-width:1;stroke-linejoin:miter;stroke-miterlimit:10;"/><line style="stroke:#000000;stroke-width:1;" x1="267.8291" x2="267.8291" y1="583.5898" y2="588.5898"/><line style="stroke:#000000;stroke-width:1;" x1="267.8291" x2="1216.0945" y1="588.5898" y2="588.5898"/><line style="stroke:#000000;stroke-width:1;" x1="1216.0945" x2="1216.0945" y1="588.5898" y2="603.5898"/><polygon fill="#000000" points="1212.0945,593.5898,1216.0945,603.5898,1220.0945,593.5898,1216.0945,597.5898" style="stroke:#000000;stroke-width:1;stroke-linejoin:miter;stroke-miterlimit:10;"/><text fill="#000000" font-family="Arial" font-size="10" lengthAdjust="spacing" textLength="21.1133" x="163.9526" y="62.4785">User</text><text fill="#000000" font-family="Arial" font-size="10" lengthAdjust="spacing" textLength="33.3398" x="1213.4246" y="62.4785">System</text><?plantuml-src ZLLTJnin47o_Nx5LNuBKIe3K2YKFLKX0gagWIW2fGbMrEUzThFZig-sGfgN_lUlx82PSAE81dNTtTcPsxRmfBUO5mihHBLalKrIVCp0wSKkfIxHOm1pJPMxDIekHKSR2UY4zHN6tG67MKkUGeN9nH526A-NFZVQNM10ChKJL7P_9tmH7Xt5GOix_9sXpgU7eE0ff8yXH2KSVeqEBUbaTdaI71VwQa7EOKzNWE8uDhJNhMj9SiSPOqbeM2ZMT6Yl8lfnpBRsYqnsFtfuVXxzzwK5nDogcNjvBlu4_2S1ff_Dy_emMm2uam5XYORJO1zA6zs2r0m7uYaA4wNv8_YO-i8VX-CVX2KnGiw-Sh1Z09Sd3ZIFxa3YFrYVzgv9q6njmSBPndeg7f3-MhbIuWM6QycJaN56Src2ifKyNq9kHejIJg6mn-Y19qH7qHfRGjsK7JB5_fZrPg9OCjO2hCgIZWZ6vrChgQy1vZoouPBIWTCaY99Tgr6bTUOjAYYruA98PzAhZJmVW5wogT_UDtFVGbs5cUDycLm1JoYov1Ln8vqCrgS3uxjAq1Qt-fXCpWpFUnAeLQI6pHcHaO2MnzYBY5OjfGHiY8nD4UNQqnfgomgB3i9ioQ1LiaqUftEiigXJNbQqzzHUuLJNJRAKwhMgjQKZ-rw46jTETCRlnT0Mcz7D5paCLQUOTkBNVa1gTILjGvnmZsNk5Fo9DLuegitOwe59ctOqVPCMKEtVbkHUH6zlkhDBAjDNO-j9Xv2XGLqySYJqS2W5ywoU6vtdDpsTzLU9bsvx2V1FeagNWnkMgc3zVmjgr-bw_YzrxLrzAJUyRyS70TZv3VWHoNV2wlkHVlvlie7Epjkl_mdP5VJitR4h5gupn1khKNJiQW8RJjbt8wtyX_gcAKAQKyaFyP2lQczwyUTKiAmuNj7rp7DpeT84w9p58c7xzSl8ZRCf_?></g></svg>